<?xml version="1.0" encoding="UTF-8" standalone="no"?>
<svg viewBox="0 0 385.43555 389.15997" xmlns="http://www.w3.org/2000/svg" xmlns:xlink="http://www.w3.org/1999/xlink">
<defs>
<filter id="filter3802">
<feGaussianBlur stdDeviation="3.2175"/>
</filter>
<linearGradient id="linearGradient3828">
<stop offset="0" stop-color="#fff"/>
<stop offset="1" stop-color="#fff" stop-opacity="0"/>
</linearGradient>
<linearGradient gradientUnits="userSpaceOnUse" id="linearGradient3782" x1="347.14285" x2="284.28571" xlink:href="#linearGradient3828" y1="453.79074" y2="119.50504"/>
<linearGradient gradientUnits="userSpaceOnUse" id="linearGradient3806" x1="347.14285" x2="284.28571" xlink:href="#linearGradient3828" y1="446.64788" y2="112.36218"/>
<linearGradient gradientUnits="userSpaceOnUse" id="linearGradient3824" x1="295.71429" x2="298.57144" xlink:href="#linearGradient3828" y1="110.93361" y2="290.93362"/>
<linearGradient gradientUnits="userSpaceOnUse" id="linearGradient3834" x1="439.25792" x2="394.81121" xlink:href="#linearGradient3828" y1="171.32099" y2="239.00121"/>
<radialGradient cx="340.16525" cy="204.16217" gradientTransform="matrix(.56939,.82726,-.8121,.55896,296.39792,-128.87447)" gradientUnits="userSpaceOnUse" id="radialGradient2993" r="189.48572">
<stop offset="0" stop-color="#fff" stop-opacity="0"/>
<stop offset="1" stop-color="#00a0f0"/>
</radialGradient>
<radialGradient cx="293.99741" cy="257.53165" gradientTransform="matrix(3.92419,3.43834,-3.07137,3.50541,-71.40032,-1656.083)" gradientUnits="userSpaceOnUse" id="radialGradient3920" r="10.27344">
<stop offset="0" stop-color="#840000"/>
<stop offset="1" stop-color="#840000" stop-opacity="0"/>
</radialGradient>
</defs>
<g transform="translate(-130.84472,-73.20222)">
<path d="m512.85716,273.07648c0,104.53961-84.7461,189.28572-189.28572,189.28572s-189.28572-84.74611-189.28572-189.28572 84.7461-189.28572 189.28572-189.28572 189.28572,84.7461 189.28572,189.28572z" fill="url(#radialGradient2993)"/>
<g fill="url(#radialGradient3920)" font-family="Sans" font-size="40" letter-spacing="0" transform="matrix(9.19384,0,0,9.19384,-2352.2836,-2080.0511)" word-spacing="0">
<path d="m293.23941,263.55081h-4.98047c-.013-.71614-.0195-1.15233-.0195-1.30859-1e-005-1.61458.26692-2.9427.80078-3.98438s1.60155-2.21352 3.20313-3.51562 2.55857-2.15493 2.87109-2.5586c.48175-.638.72264-1.34112.72266-2.10937-2e-005-1.06769-.42645-1.9824-1.2793-2.74414s-2.00197-1.14255-3.44727-1.14258c-1.39324,3e-005-2.5586.39716-3.49609,1.19141s-1.58204,2.00523-1.93359,3.63281l-5.03907-.625c.14323-2.33071 1.13607-4.30987 2.97852-5.9375s4.26106-2.44138 7.25586-2.44141c3.15103,3e-005 5.65753.8236 7.51953,2.47071s2.79295,3.56447 2.79297,5.75195c-2e-005,1.21096-.34182,2.35679-1.02539,3.4375s-2.1452,2.5521-4.38477,4.41406c-1.15887.96356-1.87827,1.73829-2.1582,2.32422s-.40692,1.63412-.38086,3.14453zm-4.98047,7.38281v-5.48828h5.48828v5.48828z" fill="url(#radialGradient3920)"/>
</g>
<path d="m323.5625,88.06696c-102.17282,0-184.99589,82.82307-184.99589,184.99589s82.82307,185.02644 184.99589,185.02644 184.99589-82.85361 184.99589-185.02644-82.82307-184.99589-184.99589-184.99589zm0,5.58928c99.08836,0 179.43716,80.31826 179.43716,179.40661s-80.3488,179.43716-179.43716,179.43716-179.40661-80.3488-179.40661-179.43716 80.31825-179.40661 179.40661-179.40661z" fill="url(#linearGradient3782)"/>
<path d="m185.44965,158.13208 98.89342,73.49604 62.76072-18.9478 25.22408-113.13709c0,0-38.38579-17.17259-98.99495,2.02031s-87.88327,56.56854-87.88327,56.56854z" fill="url(#linearGradient3824)"/>
<path d="m323.5625,80.92411c-102.17282,0-184.99589,82.82306-184.99589,184.99588s82.82307,185.02644 184.99589,185.02644 184.99589-82.85361 184.99589-185.02644-82.82307-184.99588-184.99589-184.99588zm0,5.58928c99.08836,0 179.43716,80.31826 179.43716,179.40661s-80.3488,179.43716-179.43716,179.43716-179.40661-80.3488-179.40661-179.43716 80.31825-179.40661 179.40661-179.40661z" fill="url(#linearGradient3806)" filter="url(#filter3802)"/>
<path d="m408.15916,159.90859c26.07251-1.07888 45.63136,21.38659 46.42857,50.71428s-42.85714,10.71429-60-12.85714-12.50107-36.77827 13.57143-37.85714z" fill="url(#linearGradient3834)"/>
</g>
</svg>
